<svg width="24" height="24" viewBox="0 0 24 24" fill="currentColor" xmlns="http://www.w3.org/2000/svg"><path d="M2.97089 9.03027C1.32897 9.03027 0 10.3585 0 11.9997C0 13.6408 1.32747 14.9698 2.97089 14.9698C4.60983 14.9698 5.94029 13.6431 5.94029 11.9997C5.94029 10.3585 4.60983 9.03027 2.97089 9.03027ZM12.1539 9.03027C10.5157 9.03027 9.18297 10.3577 9.18297 11.9989C9.18297 13.6401 10.5142 14.9691 12.1539 14.9691C13.7935 14.9691 15.1263 13.6423 15.1263 11.9989C15.1248 10.3585 13.7935 9.03027 12.1539 9.03027ZM21.0314 9.03027C19.3902 9.03027 18.0597 10.3585 18.0597 12.0004C18.0597 13.6401 19.3879 14.9691 21.0314 14.9691C22.6695 14.9691 24 13.6423 24 12.0004C24 10.3585 22.6695 9.03027 21.0314 9.03027Z" /></svg>
